<?xml version="1.0" standalone="no"?><!DOCTYPE svg PUBLIC "-//W3C//DTD SVG 1.1//EN" "http://www.w3.org/Graphics/SVG/1.1/DTD/svg11.dtd"><svg class="icon" viewBox="0 0 1024 1024" version="1.1" xmlns="http://www.w3.org/2000/svg"><path d="M514.761697 1012.829091c-273.749333 0-496.484848-222.735515-496.484849-496.484849s222.735515-496.484848 496.484849-496.484848 496.484848 222.735515 496.484848 496.484848-222.735515 496.484848-496.484848 496.484849z m0-899.878788c-222.425212 0-403.393939 180.968727-403.393939 403.393939s180.968727 403.393939 403.393939 403.39394 403.393939-180.968727 403.393939-403.39394-180.968727-403.393939-403.393939-403.393939z" fill="#F23C3C" /><path d="M689.617455 747.892364c-11.977697 0-23.955394-4.592485-33.047273-13.777455L306.796606 381.114182a46.545455 46.545455 0 1 1 66.125576-65.50497l349.742545 352.969697a46.545455 46.545455 0 0 1-33.047272 79.313455z" fill="#F23C3C" /><path d="M338.168242 746.309818a46.545455 46.545455 0 0 1-32.736969-79.592727l353.155879-349.835636a46.545455 46.545455 0 1 1 65.504969 66.125575L370.936242 732.811636c-9.060848 8.998788-20.914424 13.498182-32.768 13.498182z" fill="#F23C3C" /></svg>
